<?xml version="1.0" standalone="no"?><!DOCTYPE svg PUBLIC "-//W3C//DTD SVG 1.1//EN" "http://www.w3.org/Graphics/SVG/1.1/DTD/svg11.dtd"><svg width="100%" height="100%" viewBox="0 0 426 426" version="1.1" xmlns="http://www.w3.org/2000/svg" xmlns:xlink="http://www.w3.org/1999/xlink" xml:space="preserve" style="fill-rule:evenodd;clip-rule:evenodd;stroke-miterlimit:2.61313;"><g id="Layer 1"><rect x="0" y="0" width="425.197" height="425.197" style="fill:none;stroke-width:0.5px;stroke:#0f0d0a;"/><path d="M262.831,304.008l-3.354,0l0,8.596l31.197,0l0.05,12.071l-12.532,0l-16.551,0l-14.502,-0.049l-0.091,-52.942l13.755,-0.049l29.704,0l0.049,12.071l-17.964,0l-13.137,0l-0.028,8.23l23.355,0l0.049,12.072l-20,0ZM337.757,309.403l-0.021,-5.212l-11.739,0c0.011,2.926 -0.428,5.06 -1.316,6.401c-0.888,1.341 -2.877,2.012 -5.961,2.012l-6.575,0c-2.86,0 -4.776,-0.733 -5.744,-2.195c-0.967,-1.462 -1.457,-3.536 -1.467,-6.218l-0.049,-12.072c-0.01,-2.682 0.46,-4.756 1.415,-6.218c0.955,-1.464 2.865,-2.195 5.728,-2.195l6.573,0c3.086,0 5.079,0.671 5.978,2.012c0.9,1.341 1.356,3.475 1.368,6.401l11.739,0l-0.021,-5.213c-0.02,-4.938 -0.998,-8.718 -2.931,-11.339c-1.933,-2.621 -5.517,-3.932 -10.749,-3.932l-17.173,0c-5.186,0 -8.782,1.265 -10.783,3.795c-2.003,2.529 -2.993,6.357 -2.972,11.476l0.092,22.497c0.021,5.12 1.043,8.948 3.065,11.477c2.023,2.53 5.628,3.795 10.815,3.795l17.173,0c5.233,0 8.806,-1.311 10.717,-3.932c1.912,-2.621 2.858,-6.402 2.838,-11.34ZM352.117,304.008l21.062,0l0.085,20.667l11.806,0l-0.063,-15.272l-0.092,-22.497l-0.062,-15.271l-11.806,0l0.083,20.301l-21.063,0l-0.083,-20.301l-11.672,0l-0.004,15.271l0.091,22.497l0.131,15.272l11.671,0l-0.084,-20.667Z" style="fill:#33458a;fill-rule:nonzero;"/><path d="M240.881,165.363c-2.836,26.147 -9.229,47.489 -19.179,64.027c-9.951,16.537 -21.792,29.387 -35.524,38.55c1.098,2.235 2.407,4.079 3.925,5.531c1.519,1.453 3.123,2.626 4.815,3.52c0.422,0.223 0.901,0.447 1.435,0.67c0.535,0.224 1.137,0.336 1.807,0.336c0.423,0.223 0.914,0.335 1.473,0.335c0.558,0 1.061,0 1.508,0c2.483,-0.224 4.958,-0.894 7.425,-2.012c2.468,-1.117 4.605,-2.793 6.412,-5.028l10.985,13.074l-16.765,40.226c-8.293,0.224 -15.994,-0.894 -23.102,-3.352c-7.108,-2.458 -13.727,-7.375 -19.854,-14.75c-2.566,-3.128 -4.848,-6.816 -6.846,-11.062c-1.998,-4.246 -3.996,-8.492 -5.993,-12.738c-5.733,1.341 -11.541,2.346 -17.424,3.016c-5.883,0.671 -11.73,1.006 -17.54,1.006l-1.006,0c-27.017,-0.223 -50.798,-9.162 -71.343,-26.817c-20.545,-17.655 -28.357,-49.166 -23.437,-94.532c3.902,-35.98 16.587,-65.368 38.055,-88.163c21.468,-22.795 43.766,-36.762 66.895,-41.902c3.201,-0.671 6.329,-1.173 9.382,-1.509c3.054,-0.335 6.033,-0.503 8.938,-0.503c3.129,0 6.183,0.168 9.164,0.503c2.981,0.336 5.999,0.838 9.055,1.509c22.213,5.363 41.526,19.443 57.938,42.237c16.412,22.795 22.679,52.071 18.801,87.828ZM197.177,160.335c3.103,-28.606 0.064,-53.133 -9.116,-73.581c-9.18,-20.448 -24.05,-30.673 -44.61,-30.673c-20.56,0 -37.648,10.225 -51.263,30.673c-13.615,20.448 -21.973,44.975 -25.076,73.581c-3.296,30.393 -0.697,55.367 7.798,74.921c8.494,19.555 23.804,29.332 45.928,29.332c4.023,0 7.92,-0.391 11.693,-1.173c3.772,-0.783 7.295,-1.844 10.569,-3.185c-2.42,-4.47 -5.429,-8.157 -9.024,-11.062c-3.596,-2.906 -8.064,-4.47 -13.403,-4.693c-1.118,0 -2.34,-0.056 -3.669,-0.168c-1.329,-0.112 -2.676,-0.056 -4.041,0.168c-1.788,0 -3.606,0.279 -5.454,0.838c-1.849,0.558 -3.628,1.508 -5.338,2.849l-6.308,-19.107c4.658,-3.8 9.425,-6.537 14.3,-8.213c4.874,-1.676 9.77,-2.514 14.686,-2.514c8.269,0 15.892,2.346 22.87,7.039c6.978,4.693 13.059,10.951 18.245,18.773c8.368,-9.163 15.178,-20.952 20.429,-35.366c5.25,-14.415 8.845,-30.561 10.784,-48.439" style="fill:#33458a;fill-rule:nonzero;"/><path d="M230.941,283.706l-9.768,-12.071l27.711,0l0.049,12.071l-14.443,0l0.168,40.969l-15.977,0l-0.092,-8.972l12.352,-31.997Z" style="fill:#33458a;fill-rule:nonzero;"/><path d="M227.529,284.243l-8.676,-10.722c-1.042,-1.281 -0.848,-3.164 0.433,-4.206c0.555,-0.451 1.223,-0.671 1.887,-0.67l0,-0.01l27.711,0c1.657,0 3,1.343 3,3c0,0.084 -0.004,0.168 -0.011,0.251l0.048,11.808c0.006,1.65 -1.326,2.994 -2.976,3l-0.012,0l0,0.011l-11.442,0l0.155,37.959c0.007,1.65 -1.326,2.993 -2.976,2.999l-0.012,0l0,0.012l-15.977,0c-1.657,0 -3,-1.343 -3,-3c0,-0.078 0.003,-0.156 0.009,-0.233l-0.089,-8.715c-0.003,-0.389 0.069,-0.76 0.201,-1.101l-0.001,-0.001l11.728,-30.382ZM230.941,283.706l-9.768,-12.071l27.711,0l0.049,12.071l-14.443,0l0.168,40.969l-15.977,0l-0.092,-8.972l12.352,-31.997Z" style="fill:#fff;"/><g><clipPath id="_clip1"><path d="M24.684,363.015l383.581,0c1.559,0 2.834,1.276 2.834,2.835l0,38.581c0,1.559 -1.275,2.834 -2.834,2.834l-383.582,0c-1.559,0 -2.834,-1.275 -2.834,-2.834l0,-38.581c0,-1.559 1.275,-2.835 2.834,-2.835Z"/></clipPath><g clip-path="url(#_clip1)"><path d="M411.099,363.015l0,0.087l-389.25,0l0,-0.087" style="fill:#b76652;"/><path d="M411.099,363.015l0,0.26l-389.25,0l0,-0.26" style="fill:#b76652;"/><path d="M411.099,363.188l0,0.259l-389.25,0l0,-0.259" style="fill:#b76552;"/><path d="M411.099,363.361l0,0.259l-389.25,0l0,-0.259" style="fill:#b86652;"/><path d="M411.099,363.534l0,0.259l-389.25,0l0,-0.259" style="fill:#b86651;"/><path d="M411.099,363.707l0,0.259l-389.25,0l0,-0.259" style="fill:#b86651;"/><path d="M411.099,363.88l0,0.259l-389.25,0l0,-0.26" style="fill:#b76450;"/><path d="M411.099,364.052l0,0.259l-389.25,0l0,-0.259" style="fill:#b86550;"/><path d="M411.099,364.225l0,0.259l-389.25,0l0,-0.259" style="fill:#b86550;"/><path d="M411.099,364.398l0,0.259l-389.25,0l0,-0.259" style="fill:#b86450;"/><path d="M411.099,364.571l0,0.259l-389.25,0l0,-0.259" style="fill:#b86450;"/><path d="M411.099,364.744l0,0.259l-389.25,0l0,-0.259" style="fill:#b86450;"/><path d="M411.099,364.917l0,0.259l-389.25,0l0,-0.259" style="fill:#b86450;"/><path d="M411.099,365.089l0,0.26l-389.25,0l0,-0.26" style="fill:#b8634f;"/><path d="M411.099,365.262l0,0.26l-389.25,0l0,-0.26" style="fill:#b8634f;"/><path d="M411.099,365.435l0,0.26l-389.25,0l0,-0.26" style="fill:#b8634f;"/><path d="M411.099,365.608l0,0.259l-389.25,0l0,-0.259" style="fill:#b9624e;"/><path d="M411.099,365.781l0,0.259l-389.25,0l0,-0.259" style="fill:#b9624e;"/><path d="M411.099,365.954l0,0.259l-389.25,0l0,-0.259" style="fill:#b8624e;"/><path d="M411.099,366.127l0,0.259l-389.25,0l0,-0.259" style="fill:#b8624e;"/><path d="M411.099,366.299l0,0.26l-389.25,0l0,-0.26" style="fill:#b9614e;"/><path d="M411.099,366.472l0,0.26l-389.25,0l0,-0.26" style="fill:#b9614e;"/><path d="M411.099,366.645l0,0.259l-389.25,0l0,-0.259" style="fill:#b9614e;"/><path d="M411.099,366.818l0,0.259l-389.25,0l0,-0.259" style="fill:#b9614d;"/><path d="M411.099,366.991l0,0.259l-389.25,0l0,-0.259" style="fill:#b9614d;"/><path d="M411.099,367.164l0,0.259l-389.25,0l0,-0.259" style="fill:#b9614d;"/><path d="M411.099,367.337l0,0.259l-389.25,0l0,-0.259" style="fill:#b9614d;"/><path d="M411.099,367.509l0,0.26l-389.25,0l0,-0.26" style="fill:#b9604d;"/><path d="M411.099,367.682l0,0.26l-389.25,0l0,-0.26" style="fill:#b9604d;"/><path d="M411.099,367.855l0,0.259l-389.25,0l0,-0.259" style="fill:#b9604c;"/><path d="M411.099,368.028l0,0.259l-389.25,0l0,-0.259" style="fill:#b95f4c;"/><path d="M411.099,368.201l0,0.259l-389.25,0l0,-0.259" style="fill:#b95f4c;"/><path d="M411.099,368.374l0,0.259l-389.25,0l0,-0.259" style="fill:#b95f4c;"/><path d="M411.099,368.547l0,0.259l-389.25,0l0,-0.26" style="fill:#b95f4c;"/><path d="M411.099,368.719l0,0.26l-389.25,0l0,-0.26" style="fill:#ba5e4c;"/><path d="M411.099,368.892l0,0.259l-389.25,0l0,-0.259" style="fill:#ba5e4c;"/><path d="M411.099,369.065l0,0.259l-389.25,0l0,-0.259" style="fill:#ba5e4b;"/><path d="M411.099,369.238l0,0.259l-389.25,0l0,-0.259" style="fill:#ba5d4b;"/><path d="M411.099,369.411l0,0.259l-389.25,0l0,-0.259" style="fill:#ba5e4b;"/><path d="M411.099,369.584l0,0.259l-389.25,0l0,-0.259" style="fill:#ba5e4b;"/><path d="M411.099,369.757l0,0.259l-389.25,0l0,-0.259" style="fill:#ba5d4a;"/><path d="M411.099,369.929l0,0.26l-389.25,0l0,-0.26" style="fill:#ba5d4a;"/><path d="M411.099,370.102l0,0.259l-389.25,0l0,-0.259" style="fill:#ba5d4a;"/><path d="M411.099,370.275l0,0.259l-389.25,0l0,-0.259" style="fill:#ba5d4a;"/><path d="M411.099,370.448l0,0.259l-389.25,0l0,-0.259" style="fill:#ba5c49;"/><path d="M411.099,370.621l0,0.259l-389.25,0l0,-0.259" style="fill:#ba5c49;"/><path d="M411.099,370.794l0,0.259l-389.25,0l0,-0.26" style="fill:#ba5c49;"/><path d="M411.099,370.966l0,0.26l-389.25,0l0,-0.26" style="fill:#bb5b49;"/><path d="M411.099,371.139l0,0.26l-389.25,0l0,-0.26" style="fill:#bb5b49;"/><path d="M411.099,371.312l0,0.259l-389.25,0l0,-0.259" style="fill:#bb5b49;"/><path d="M411.099,371.485l0,0.259l-389.25,0l0,-0.259" style="fill:#bb5b49;"/><path d="M411.099,371.658l0,0.259l-389.25,0l0,-0.259" style="fill:#bb5a48;"/><path d="M411.099,371.831l0,0.259l-389.25,0l0,-0.259" style="fill:#bb5a48;"/><path d="M411.099,372.004l0,0.259l-389.25,0l0,-0.259" style="fill:#bb5a48;"/><path d="M411.099,372.177l0,0.259l-389.25,0l0,-0.259" style="fill:#ba5948;"/><path d="M411.099,372.349l0,0.26l-389.25,0l0,-0.26" style="fill:#ba5947;"/><path d="M411.099,372.522l0,0.26l-389.25,0l0,-0.26" style="fill:#bb5947;"/><path d="M411.099,372.695l0,0.259l-389.25,0l0,-0.259" style="fill:#bb5947;"/><path d="M411.099,372.868l0,0.259l-389.25,0l0,-0.259" style="fill:#bb5947;"/><path d="M411.099,373.041l0,0.259l-389.25,0l0,-0.259" style="fill:#bb5947;"/><path d="M411.099,373.213l0,0.26l-389.25,0l0,-0.26" style="fill:#bc5947;"/><path d="M411.099,373.386l0,0.26l-389.25,0l0,-0.26" style="fill:#bb5846;"/><path d="M411.099,373.559l0,0.26l-389.25,0l0,-0.26" style="fill:#bb5846;"/><path d="M411.099,373.732l0,0.259l-389.25,0l0,-0.259" style="fill:#bb5846;"/><path d="M411.099,373.905l0,0.259l-389.25,0l0,-0.259" style="fill:#bb5846;"/><path d="M411.099,374.078l0,0.259l-389.25,0l0,-0.259" style="fill:#bb5746;"/><path d="M411.099,374.251l0,0.259l-389.25,0l0,-0.259" style="fill:#bb5746;"/><path d="M411.099,374.424l0,0.259l-389.25,0l0,-0.259" style="fill:#bb5745;"/><path d="M411.099,374.597l0,0.259l-389.25,0l0,-0.26" style="fill:#bb5645;"/><path d="M411.099,374.769l0,0.259l-389.25,0l0,-0.259" style="fill:#bc5645;"/><path d="M411.099,374.942l0,0.259l-389.25,0l0,-0.259" style="fill:#bc5645;"/><path d="M411.099,375.115l0,0.259l-389.25,0l0,-0.259" style="fill:#bc5645;"/><path d="M411.099,375.288l0,0.259l-389.25,0l0,-0.259" style="fill:#bc5545;"/><path d="M411.099,375.461l0,0.259l-389.25,0l0,-0.259" style="fill:#bc5545;"/><path d="M411.099,375.633l0,0.26l-389.25,0l0,-0.26" style="fill:#bc5544;"/><path d="M411.099,375.806l0,0.26l-389.25,0l0,-0.26" style="fill:#bc5444;"/><path d="M411.099,375.979l0,0.26l-389.25,0l0,-0.26" style="fill:#bc5444;"/><path d="M411.099,376.152l0,0.259l-389.25,0l0,-0.259" style="fill:#bc5444;"/><path d="M411.099,376.325l0,0.259l-389.25,0l0,-0.259" style="fill:#bc5444;"/><path d="M411.099,376.498l0,0.259l-389.25,0l0,-0.259" style="fill:#bc5443;"/><path d="M411.099,376.671l0,0.259l-389.25,0l0,-0.259" style="fill:#bc5443;"/><path d="M411.099,376.843l0,0.26l-389.25,0l0,-0.26" style="fill:#bc5443;"/><path d="M411.099,377.016l0,0.259l-389.25,0l0,-0.259" style="fill:#bd5343;"/><path d="M411.099,377.189l0,0.259l-389.25,0l0,-0.259" style="fill:#bd5343;"/><path d="M411.099,377.362l0,0.259l-389.25,0l0,-0.259" style="fill:#bd5343;"/><path d="M411.099,377.535l0,0.259l-389.25,0l0,-0.259" style="fill:#bd5343;"/><path d="M411.099,377.708l0,0.259l-389.25,0l0,-0.259" style="fill:#bd5242;"/><path d="M411.099,377.881l0,0.259l-389.25,0l0,-0.259" style="fill:#bd5242;"/><path d="M411.099,378.053l0,0.26l-389.25,0l0,-0.26" style="fill:#bd5242;"/><path d="M411.099,378.226l0,0.26l-389.25,0l0,-0.26" style="fill:#bd5141;"/><path d="M411.099,378.399l0,0.259l-389.25,0l0,-0.259" style="fill:#bd5141;"/><path d="M411.099,378.572l0,0.259l-389.25,0l0,-0.259" style="fill:#bd5141;"/><path d="M411.099,378.745l0,0.259l-389.25,0l0,-0.259" style="fill:#bd5141;"/><path d="M411.099,378.918l0,0.259l-389.25,0l0,-0.259" style="fill:#bd5041;"/><path d="M411.099,379.09l0,0.26l-389.25,0l0,-0.26" style="fill:#bd5041;"/><path d="M411.099,379.263l0,0.259l-389.25,0l0,-0.259" style="fill:#be5041;"/><path d="M411.099,379.436l0,0.259l-389.25,0l0,-0.259" style="fill:#bd4f40;"/><path d="M411.099,379.609l0,0.259l-389.25,0l0,-0.259" style="fill:#bd4f40;"/><path d="M411.099,379.782l0,0.259l-389.25,0l0,-0.259" style="fill:#bd4f40;"/><path d="M411.099,379.955l0,0.259l-389.25,0l0,-0.259" style="fill:#bd4f40;"/><path d="M411.099,380.128l0,0.259l-389.25,0l0,-0.259" style="fill:#bd4e3f;"/><path d="M411.099,380.301l0,0.259l-389.25,0l0,-0.259" style="fill:#bd4e3f;"/><path d="M411.099,380.473l0,0.26l-389.25,0l0,-0.26" style="fill:#bd4e3f;"/><path d="M411.099,380.646l0,0.26l-389.25,0l0,-0.26" style="fill:#bd4d3f;"/><path d="M411.099,380.819l0,0.259l-389.25,0l0,-0.259" style="fill:#be4e3f;"/><path d="M411.099,380.992l0,0.259l-389.25,0l0,-0.259" style="fill:#be4e3f;"/><path d="M411.099,381.165l0,0.259l-389.25,0l0,-0.259" style="fill:#be4e3f;"/><path d="M411.099,381.338l0,0.259l-389.25,0l0,-0.259" style="fill:#be4d3e;"/><path d="M411.099,381.511l0,0.259l-389.25,0l0,-0.26" style="fill:#be4d3e;"/><path d="M411.099,381.683l0,0.26l-389.25,0l0,-0.26" style="fill:#be4d3e;"/><path d="M411.099,381.856l0,0.259l-389.25,0l0,-0.259" style="fill:#be4c3e;"/><path d="M411.099,382.029l0,0.259l-389.25,0l0,-0.259" style="fill:#be4c3e;"/><path d="M411.099,382.202l0,0.259l-389.25,0l0,-0.259" style="fill:#be4c3d;"/><path d="M411.099,382.375l0,0.259l-389.25,0l0,-0.259" style="fill:#be4c3d;"/><path d="M411.099,382.548l0,0.259l-389.25,0l0,-0.259" style="fill:#be4b3d;"/><path d="M411.099,382.721l0,0.259l-389.25,0l0,-0.259" style="fill:#be4b3d;"/><path d="M411.099,382.893l0,0.26l-389.25,0l0,-0.26" style="fill:#be4b3d;"/><path d="M411.099,383.066l0,0.259l-389.25,0l0,-0.259" style="fill:#be4a3d;"/><path d="M411.099,383.239l0,0.259l-389.25,0l0,-0.259" style="fill:#bf4a3d;"/><path d="M411.099,383.412l0,0.259l-389.25,0l0,-0.259" style="fill:#bf4a3c;"/><path d="M411.099,383.585l0,0.259l-389.25,0l0,-0.259" style="fill:#bf4a3c;"/><path d="M411.099,383.758l0,0.259l-389.25,0l0,-0.26" style="fill:#bf4a3c;"/><path d="M411.099,383.93l0,0.26l-389.25,0l0,-0.26" style="fill:#be493c;"/><path d="M411.099,384.103l0,0.259l-389.25,0l0,-0.259" style="fill:#be493c;"/><path d="M411.099,384.276l0,0.259l-389.25,0l0,-0.259" style="fill:#be493c;"/><path d="M411.099,384.449l0,0.259l-389.25,0l0,-0.259" style="fill:#be493c;"/><path d="M411.099,384.622l0,0.259l-389.25,0l0,-0.259" style="fill:#be483c;"/><path d="M411.099,384.795l0,0.259l-389.25,0l0,-0.259" style="fill:#be483b;"/><path d="M411.099,384.968l0,0.259l-389.25,0l0,-0.259" style="fill:#be483b;"/><path d="M411.099,385.141l0,0.259l-389.25,0l0,-0.26" style="fill:#bf483b;"/><path d="M411.099,385.313l0,0.26l-389.25,0l0,-0.26" style="fill:#bf473b;"/><path d="M411.099,385.486l0,0.259l-389.25,0l0,-0.259" style="fill:#bf473b;"/><path d="M411.099,385.659l0,0.259l-389.25,0l0,-0.259" style="fill:#bf473b;"/><path d="M411.099,385.832l0,0.259l-389.25,0l0,-0.259" style="fill:#bf473b;"/><path d="M411.099,386.004l0,0.26l-389.25,0l0,-0.26" style="fill:#bf463b;"/><path d="M411.099,386.177l0,0.26l-389.25,0l0,-0.26" style="fill:#bf463a;"/><path d="M411.099,386.35l0,0.26l-389.25,0l0,-0.26" style="fill:#bf463a;"/><path d="M411.099,386.523l0,0.259l-389.25,0l0,-0.259" style="fill:#bf463a;"/><path d="M411.099,386.696l0,0.259l-389.25,0l0,-0.259" style="fill:#bf463a;"/><path d="M411.099,386.869l0,0.259l-389.25,0l0,-0.259" style="fill:#be453a;"/><path d="M411.099,387.042l0,0.259l-389.25,0l0,-0.259" style="fill:#bf453a;"/><path d="M411.099,387.215l0,0.259l-389.25,0l0,-0.259" style="fill:#bf453a;"/><path d="M411.099,387.388l0,0.259l-389.25,0l0,-0.26" style="fill:#bf453a;"/><path d="M411.099,387.56l0,0.259l-389.25,0l0,-0.259" style="fill:#bf4539;"/><path d="M411.099,387.733l0,0.259l-389.25,0l0,-0.259" style="fill:#bf4539;"/><path d="M411.099,387.906l0,0.259l-389.25,0l0,-0.259" style="fill:#bf4539;"/><path d="M411.099,388.079l0,0.259l-389.25,0l0,-0.259" style="fill:#bf4539;"/><path d="M411.099,388.252l0,0.259l-389.25,0l0,-0.259" style="fill:#bf4439;"/><path d="M411.099,388.424l0,0.26l-389.25,0l0,-0.26" style="fill:#bf4439;"/><path d="M411.099,388.597l0,0.26l-389.25,0l0,-0.26" style="fill:#bf4439;"/><path d="M411.099,388.77l0,0.26l-389.25,0l0,-0.26" style="fill:#bf4438;"/><path d="M411.099,388.943l0,0.259l-389.25,0l0,-0.259" style="fill:#bf4338;"/><path d="M411.099,389.116l0,0.259l-389.25,0l0,-0.259" style="fill:#bf4338;"/><path d="M411.099,389.289l0,0.259l-389.25,0l0,-0.259" style="fill:#bf4338;"/><path d="M411.099,389.462l0,0.259l-389.25,0l0,-0.259" style="fill:#bf4338;"/><path d="M411.099,389.635l0,0.259l-389.25,0l0,-0.259" style="fill:#bf4338;"/><path d="M411.099,389.808l0,0.259l-389.25,0l0,-0.26" style="fill:#c04238;"/><path d="M411.099,389.98l0,0.259l-389.25,0l0,-0.259" style="fill:#c04238;"/><path d="M411.099,390.153l0,0.259l-389.25,0l0,-0.259" style="fill:#c04237;"/><path d="M411.099,390.326l0,0.259l-389.25,0l0,-0.259" style="fill:#c04237;"/><path d="M411.099,390.499l0,0.259l-389.25,0l0,-0.259" style="fill:#bf4137;"/><path d="M411.099,390.672l0,0.259l-389.25,0l0,-0.259" style="fill:#c04137;"/><path d="M411.099,390.844l0,0.26l-389.25,0l0,-0.26" style="fill:#c04137;"/><path d="M411.099,391.017l0,0.26l-389.25,0l0,-0.26" style="fill:#c04137;"/><path d="M411.099,391.19l0,0.26l-389.25,0l0,-0.26" style="fill:#bf4036;"/><path d="M411.099,391.363l0,0.259l-389.25,0l0,-0.259" style="fill:#bf4036;"/><path d="M411.099,391.536l0,0.259l-389.25,0l0,-0.259" style="fill:#c04036;"/><path d="M411.099,391.709l0,0.259l-389.25,0l0,-0.259" style="fill:#c04036;"/><path d="M411.099,391.882l0,0.259l-389.25,0l0,-0.259" style="fill:#c03f36;"/><path d="M411.099,392.054l0,0.26l-389.25,0l0,-0.26" style="fill:#c03f36;"/><path d="M411.099,392.227l0,0.259l-389.25,0l0,-0.259" style="fill:#c03f36;"/><path d="M411.099,392.4l0,0.259l-389.25,0l0,-0.259" style="fill:#c03f36;"/><path d="M411.099,392.573l0,0.259l-389.25,0l0,-0.259" style="fill:#c03f36;"/><path d="M411.099,392.746l0,0.259l-389.25,0l0,-0.259" style="fill:#c03e35;"/><path d="M411.099,392.919l0,0.259l-389.25,0l0,-0.259" style="fill:#c03e35;"/><path d="M411.099,393.092l0,0.259l-389.25,0l0,-0.259" style="fill:#c03e35;"/><path d="M411.099,393.264l0,0.26l-389.25,0l0,-0.26" style="fill:#c03e35;"/><path d="M411.099,393.437l0,0.26l-389.25,0l0,-0.26" style="fill:#c13d35;"/><path d="M411.099,393.61l0,0.259l-389.25,0l0,-0.259" style="fill:#c03d35;"/><path d="M411.099,393.783l0,0.259l-389.25,0l0,-0.259" style="fill:#c03d35;"/><path d="M411.099,393.956l0,0.259l-389.25,0l0,-0.259" style="fill:#c03d35;"/><path d="M411.099,394.129l0,0.259l-389.25,0l0,-0.259" style="fill:#c03c34;"/><path d="M411.099,394.302l0,0.259l-389.25,0l0,-0.26" style="fill:#c03c34;"/><path d="M411.099,394.474l0,0.26l-389.25,0l0,-0.26" style="fill:#c03c34;"/><path d="M411.099,394.647l0,0.259l-389.25,0l0,-0.259" style="fill:#c03c34;"/><path d="M411.099,394.82l0,0.259l-389.25,0l0,-0.259" style="fill:#c03b34;"/><path d="M411.099,394.993l0,0.259l-389.25,0l0,-0.259" style="fill:#c03b34;"/><path d="M411.099,395.166l0,0.259l-389.25,0l0,-0.259" style="fill:#c03b34;"/><path d="M411.099,395.339l0,0.259l-389.25,0l0,-0.259" style="fill:#c13b34;"/><path d="M411.099,395.512l0,0.259l-389.25,0l0,-0.259" style="fill:#c13b33;"/><path d="M411.099,395.684l0,0.26l-389.25,0l0,-0.26" style="fill:#c13a33;"/><path d="M411.099,395.857l0,0.26l-389.25,0l0,-0.26" style="fill:#c13a33;"/><path d="M411.099,396.03l0,0.259l-389.25,0l0,-0.259" style="fill:#c03a33;"/><path d="M411.099,396.203l0,0.259l-389.25,0l0,-0.259" style="fill:#c13a33;"/><path d="M411.099,396.376l0,0.259l-389.25,0l0,-0.259" style="fill:#c03932;"/><path d="M411.099,396.549l0,0.259l-389.25,0l0,-0.259" style="fill:#c03932;"/><path d="M411.099,396.722l0,0.259l-389.25,0l0,-0.26" style="fill:#c03932;"/><path d="M411.099,396.894l0,0.26l-389.25,0l0,-0.26" style="fill:#c03932;"/><path d="M411.099,397.067l0,0.259l-389.25,0l0,-0.259" style="fill:#c03832;"/><path d="M411.099,397.24l0,0.259l-389.25,0l0,-0.259" style="fill:#c13832;"/><path d="M411.099,397.413l0,0.259l-389.25,0l0,-0.259" style="fill:#c13832;"/><path d="M411.099,397.586l0,0.259l-389.25,0l0,-0.259" style="fill:#c13832;"/><path d="M411.099,397.759l0,0.259l-389.25,0l0,-0.259" style="fill:#c13732;"/><path d="M411.099,397.932l0,0.259l-389.25,0l0,-0.259" style="fill:#c13732;"/><path d="M411.099,398.104l0,0.26l-389.25,0l0,-0.26" style="fill:#c13731;"/><path d="M411.099,398.277l0,0.26l-389.25,0l0,-0.26" style="fill:#c13731;"/><path d="M411.099,398.45l0,0.259l-389.25,0l0,-0.259" style="fill:#c13731;"/><path d="M411.099,398.623l0,0.259l-389.25,0l0,-0.259" style="fill:#c03631;"/><path d="M411.099,398.796l0,0.259l-389.25,0l0,-0.259" style="fill:#c03631;"/><path d="M411.099,398.968l0,0.26l-389.25,0l0,-0.26" style="fill:#c03631;"/><path d="M411.099,399.141l0,0.26l-389.25,0l0,-0.26" style="fill:#c13631;"/><path d="M411.099,399.314l0,0.26l-389.25,0l0,-0.26" style="fill:#c13530;"/><path d="M411.099,399.487l0,0.259l-389.25,0l0,-0.259" style="fill:#c13530;"/><path d="M411.099,399.66l0,0.259l-389.25,0l0,-0.259" style="fill:#c13530;"/><path d="M411.099,399.833l0,0.259l-389.25,0l0,-0.259" style="fill:#c13530;"/><path d="M411.099,400.006l0,0.259l-389.25,0l0,-0.259" style="fill:#c13430;"/><path d="M411.099,400.179l0,0.259l-389.25,0l0,-0.259" style="fill:#c13430;"/><path d="M411.099,400.352l0,0.259l-389.25,0l0,-0.26" style="fill:#c13430;"/><path d="M411.099,400.524l0,0.259l-389.25,0l0,-0.259" style="fill:#c13430;"/><path d="M411.099,400.697l0,0.259l-389.25,0l0,-0.259" style="fill:#c1332f;"/><path d="M411.099,400.87l0,0.259l-389.25,0l0,-0.259" style="fill:#c1332f;"/><path d="M411.099,401.043l0,0.259l-389.25,0l0,-0.259" style="fill:#c1332f;"/><path d="M411.099,401.216l0,0.259l-389.25,0l0,-0.259" style="fill:#c1332f;"/><path d="M411.099,401.388l0,0.26l-389.25,0l0,-0.26" style="fill:#c1332f;"/><path d="M411.099,401.561l0,0.26l-389.25,0l0,-0.26" style="fill:#c1322f;"/><path d="M411.099,401.734l0,0.26l-389.25,0l0,-0.26" style="fill:#c1322f;"/><path d="M411.099,401.907l0,0.259l-389.25,0l0,-0.259" style="fill:#c2322e;"/><path d="M411.099,402.08l0,0.259l-389.25,0l0,-0.259" style="fill:#c2322e;"/><path d="M411.099,402.253l0,0.259l-389.25,0l0,-0.259" style="fill:#c1312e;"/><path d="M411.099,402.426l0,0.259l-389.25,0l0,-0.259" style="fill:#c1312e;"/><path d="M411.099,402.598l0,0.26l-389.25,0l0,-0.26" style="fill:#c1312e;"/><path d="M411.099,402.771l0,0.259l-389.25,0l0,-0.259" style="fill:#c2312e;"/><path d="M411.099,402.944l0,0.259l-389.25,0l0,-0.259" style="fill:#c2302e;"/><path d="M411.099,403.117l0,0.259l-389.25,0l0,-0.259" style="fill:#c2302e;"/><path d="M411.099,403.29l0,0.259l-389.25,0l0,-0.259" style="fill:#c1302d;"/><path d="M411.099,403.463l0,0.259l-389.25,0l0,-0.259" style="fill:#c1302d;"/><path d="M411.099,403.636l0,0.259l-389.25,0l0,-0.259" style="fill:#c12f2d;"/><path d="M411.099,403.808l0,0.26l-389.25,0l0,-0.26" style="fill:#c22f2d;"/><path d="M411.099,403.981l0,0.26l-389.25,0l0,-0.26" style="fill:#c22f2d;"/><path d="M411.099,404.154l0,0.26l-389.25,0l0,-0.26" style="fill:#c22f2d;"/><path d="M411.099,404.327l0,0.259l-389.25,0l0,-0.259" style="fill:#c22f2d;"/><path d="M411.099,404.5l0,0.259l-389.25,0l0,-0.259" style="fill:#c12e2d;"/><path d="M411.099,404.673l0,0.259l-389.25,0l0,-0.259" style="fill:#c22e2c;"/><path d="M411.099,404.846l0,0.259l-389.25,0l0,-0.259" style="fill:#c22e2c;"/><path d="M411.099,405.018l0,0.26l-389.25,0l0,-0.26" style="fill:#c22e2c;"/><path d="M411.099,405.191l0,0.259l-389.25,0l0,-0.259" style="fill:#c22d2c;"/><path d="M411.099,405.364l0,0.259l-389.25,0l0,-0.259" style="fill:#c22d2c;"/><path d="M411.099,405.537l0,0.259l-389.25,0l0,-0.259" style="fill:#c22d2c;"/><path d="M411.099,405.71l0,0.259l-389.25,0l0,-0.259" style="fill:#c22d2c;"/><path d="M411.099,405.883l0,0.259l-389.25,0l0,-0.259" style="fill:#c22b2b;"/><path d="M411.099,406.056l0,0.259l-389.25,0l0,-0.259" style="fill:#c22b2b;"/><path d="M411.099,406.228l0,0.26l-389.25,0l0,-0.26" style="fill:#c22b2b;"/><path d="M411.099,406.401l0,0.26l-389.25,0l0,-0.26" style="fill:#c22b2b;"/><path d="M411.099,406.574l0,0.259l-389.25,0l0,-0.259" style="fill:#c22a2b;"/><path d="M411.099,406.747l0,0.259l-389.25,0l0,-0.259" style="fill:#c22a2b;"/><path d="M411.099,406.92l0,0.345l-389.25,0l0,-0.345" style="fill:#c22a2b;"/></g></g><text x="388.009px" y="276.219px" style="font-family:'ArialMT';font-size:30.506px;fill:#738ec8;">®</text><g><text x="66.109px" y="396.09px" style="font-family:'ArialMT';font-size:30.434px;fill:#fff;">Q</text><text x="82.582px" y="396.09px" style="font-family:'ArialMT';font-size:30.434px;fill:#fff;">U</text><text x="98.61px" y="396.09px" style="font-family:'ArialMT';font-size:30.434px;fill:#fff;">O</text><text x="115.233px" y="396.09px" style="font-family:'ArialMT';font-size:30.434px;fill:#fff;">T</text><text x="125.314px" y="396.09px" style="font-family:'ArialMT';font-size:30.434px;fill:#fff;">A</text><text x="139.005px" y="396.09px" style="font-family:'ArialMT';font-size:30.434px;fill:#fff;">T</text><text x="149.795px" y="396.09px" style="font-family:'ArialMT';font-size:30.434px;fill:#fff;">I</text><text x="156.451px" y="396.09px" style="font-family:'ArialMT';font-size:30.434px;fill:#fff;">O</text><text x="172.923px" y="396.09px" style="font-family:'ArialMT';font-size:30.434px;fill:#fff;">N</text><text x="202.907px" y="396.09px" style="font-family:'ArialMT';font-size:30.434px;fill:#fff;">T</text><text x="213.698px" y="396.09px" style="font-family:'ArialMT';font-size:30.434px;fill:#fff;">E</text><text x="227.097px" y="396.09px" style="font-family:'ArialMT';font-size:30.434px;fill:#fff;">C</text><text x="242.575px" y="396.09px" style="font-family:'ArialMT';font-size:30.434px;fill:#fff;">H</text><text x="258.554px" y="396.09px" style="font-family:'ArialMT';font-size:30.434px;fill:#fff;">N</text><text x="275.032px" y="396.09px" style="font-family:'ArialMT';font-size:30.434px;fill:#fff;">O</text><text x="291.505px" y="396.09px" style="font-family:'ArialMT';font-size:30.434px;fill:#fff;">L</text><text x="303.281px" y="396.09px" style="font-family:'ArialMT';font-size:30.434px;fill:#fff;">O<tspan x="319.753px " y="396.09px ">G</tspan></text><text x="336.226px" y="396.09px" style="font-family:'ArialMT';font-size:30.434px;fill:#fff;">I</text><text x="342.981px" y="396.09px" style="font-family:'ArialMT';font-size:30.434px;fill:#fff;">E</text><text x="356.381px" y="396.09px" style="font-family:'ArialMT';font-size:30.434px;fill:#fff;">S</text></g></g></svg>